<?xml version="1.0" standalone="no"?>
<!DOCTYPE svg PUBLIC "-//W3C//DTD SVG 20010904//EN"
 "http://www.w3.org/TR/2001/REC-SVG-20010904/DTD/svg10.dtd">
<svg version="1.0" xmlns="http://www.w3.org/2000/svg"
 width="128.000000pt" height="128.000000pt" viewBox="0 0 128.000000 128.000000"
 preserveAspectRatio="xMidYMid meet">
<metadata>
Created by potrace 1.14, written by Peter Selinger 2001-2017
</metadata>
<g transform="translate(0.000000,128.000000) scale(0.100000,-0.100000)"
fill="#000000" stroke="none">
<path d="M505 1265 c-342 -75 -563 -417 -490 -759 24 -112 88 -229 170 -311
80 -80 151 -125 257 -162 62 -23 91 -26 193 -27 100 -1 131 3 190 22 210 70
358 218 426 427 33 100 33 270 0 370 -35 108 -87 193 -165 270 -152 150 -375
215 -581 170z m258 -130 c229 -60 387 -262 387 -495 0 -280 -230 -510 -510
-510 -280 0 -510 230 -510 510 0 231 157 434 383 495 69 18 179 19 250 0z"/>
<path d="M520 1005 c-109 -35 -214 -143 -247 -254 -24 -83 -15 -202 22 -277
37 -75 104 -142 180 -180 89 -43 241 -43 330 0 76 38 143 105 181 181 26 55
29 69 29 165 0 96 -3 110 -29 165 -38 76 -105 143 -181 180 -50 25 -73 30
-149 32 -59 2 -107 -2 -136 -12z m151 -202 l25 -78 93 -5 93 -5 -75 -53 -76
-52 29 -85 c16 -47 27 -85 25 -85 -3 0 -36 23 -74 51 l-70 51 -71 -51 c-38
-28 -72 -51 -74 -51 -3 0 8 38 24 84 l28 85 -76 55 -76 55 94 3 94 3 25 78
c14 42 28 77 31 77 3 0 17 -35 31 -77z"/>
</g>
</svg>
